# xmcd
#
# Track frame offsets:
#	150
#	14415
#	27542
#	43460
#	58517
#
# Disc length: 963 seconds
#
# Revision: 1
# Processed by: cddbd v1.5.2PL0 Copyright (c) Steve Scherf et al.
# Submitted via: audiograbber 1.83.01
#
DISCID=4203c105
DTITLE=Various Artist - AXRSCD 6  [CDM-Promo)
DYEAR=1993
DGENRE=Pop
TTITLE0=Matti Esko - Lämmin Ja Niin Tuttu
TTITLE1=Kikka - Tartu Tiukasti Hanuriin
TTITLE2=Kikka - Näinkö Aina Meille Käy
TTITLE3=Pekka Hartonen - Joutomies
TTITLE4=Pekka Hartonen - Vanhat Kaverit
EXTD=TR.
EXTT0=
EXTT1=
EXTT2=
EXTT3=
EXTT4=
PLAYORDER=
